<svg height="100%" width="100%" preserveAspectRatio="none" viewBox="0 0 800 500">
			<title>SVG Modal background</title>
			<path id="cd-changing-path-1" d="M-59.9,540.5l-0.9-1.4c-0.1-0.1,0-0.3,0.1-0.3L864.8-41c0.1-0.1,0.3,0,0.3,0.1l0.9,1.4c0.1,0.1,0,0.3-0.1,0.3L-59.5,540.6 C-59.6,540.7-59.8,540.7-59.9,540.5z"/>
			<path id="cd-changing-path-2" d="M-465.1,287.5l-0.9-1.4c-0.1-0.1,0-0.3,0.1-0.3L459.5-294c0.1-0.1,0.3,0,0.3,0.1l0.9,1.4c0.1,0.1,0,0.3-0.1,0.3 l-925.4,579.8C-464.9,287.7-465,287.7-465.1,287.5z"/>
			<path id="cd-changing-path-3" d="M341.1,797.5l-0.9-1.4c-0.1-0.1,0-0.3,0.1-0.3L1265.8,216c0.1-0.1,0.3,0,0.3,0.1l0.9,1.4c0.1,0.1,0,0.3-0.1,0.3L341.5,797.6 C341.4,797.7,341.2,797.7,341.1,797.5z"/>
		</svg>