<svg xmlns="http://www.w3.org/2000/svg" width="1000" height="1000" viewBox="0 0 1000 1000">
  <path fill="#F5F6F8" d="M862.8.2c-37-3.7-118.6 54.6-153.4 72.8 5.7-3.2 48.2-31.3 51-33-35.7 0-78 28.7-105.3 50.2 4.2 2.6 8.7 3 13.4 1-15.2 10-30.5 9.5-43 8.2 24-23.7 64.6-36.3 91-58.4-74 40.2-150.8 76-226.6 112.3 1.8-5 3.6-10 5.6-15 0-21.2 22.3-18.6 8-47.5-6 13-13 24.7-27.2 24.7-42.7 0-40 15.2-60.3 55.4-4 7.4-7.4 15-10.6 23l-35 17.5c-79.7 40.6-171.5 86-261.8 97.7C85.6 274.5 5 350.2 1 372.7c19.8 0 0 32.8 33 40C52 422 62.4 437.8 86.5 436c44-3 75.6-13.2 102.8-13.2 4 5.8 82-31.5 169.5-75.7-30.6 95.8-73.6 202.3-95 288.7-15.8 64-23.7 121.3-27.8 173 8 5.8-9.4 42.5-8 50.8-18.5 30.5-21 65-8.4 108.8 3-32.6 8.8-65.7 15.3-97.8.6 0-2 88.7-3 101.5 4.5-2 7.2-5.5 8-10.4-1.2 12.8-1.8 25.6-2 38.4.7-11 1.8-11.6 3.5-2 18.2-30 18-109.3 18.4-109.7-7.5-18.3 10-58.4 14-77.2l-6.4 72c2.8-30 33.2-203.5 50-202-10-1-40 219.2-31.4 220 5.6-34.3 10.4-100 36.5-122-2 24-6.7 47.3-8.6 71 38.8-129.5 71.3-260.5 111.2-390 15.4-50 23.4-107 32.4-163.4 37-19.2 71-37 96.7-50.7-16.3 9.6-5.6 6 .7-.5l43.8-23.3c-22.3 11.2-35.8 18.6-43.7 23.2 3.3-3.3 5.3-7.4 2-11 67.6-33.7 200.6-78.7 243.4-143.2-49.3 30.5-104.8 57.6-159.6 74.7-1 .7 21.6-22 8.2-4 19.7-20.2 46.7-34.7 73-49-2.7-1-5.2-2.8-7.5-5.4 38.4-21.3 110.8-43 130-84-12.2 0-26 4.3-40.5 10.7 19.6-11.4 39.2-22.8 58.8-34zm-590 795.4c-1.4-2.5-3-5 0 0zm50.3-94.8c-14.3 32.8.8-40.7 9.5-42.8-3 14.3-6.3 28.5-9.4 42.8zm368-600.4c4.5-13.6 46-31.8 63.5-38.7-23.7 15-46.2 30.3-63.6 38.7zm31 12.7c12.6-6.7 25-13.5 36.5-20.7C744 110.3 732 117 722 113z"/>
  <path fill="#F5F6F8" d="M920.4 208.8l-4.7 3 4.7-3zM960 174c-11 11-24.6 24.7-39.6 34.8 16-9.4 36.2-15.2 39.7-34.8zm-23.3-10.7c-1.8 3.6 5.5-1.5 0 0zm4.7-6.4c22.7-17.7-10.8 6.6 0 0zm-15 23.7c14-9 12.4-7.5 17.5-13.5-11.3 2.8-7 7-17.7 13.5zm12.7-22c-2.4 2-5.5 4.4-9.3 7.2 3.4-1.6 5.6-2.4 7-2.7.6-1.2 2-3.2 5-6.6 0 0-.2 0-.3.2-1 .6-1.6 1-2.3 1.7zM897.8 139c21-15 6.4-5.7-1.4-.2h-1.5-.4c-10.7.6-16 5.2-16.4 13.8 8-5.8 14.3-10 18.8-13.3.3 0 .6-.3 1-.3zm12.7 33c-13 8.2 4 6.3 0 0zM398 838.6c-6.3.8-9 5.5-8 14 .3 1.4 1.8 3 4.8 4.8 3 2 6 2.6 9 2.2 6.3-.8 11.6-3 15.6-6.5 2.2-2.5 3.7-4.4 4.6-5.8-3-4-5-7-6.3-8.5-4.7-1.2-11.2-1.3-19.6-.2zm6.7-37.7c1-1 2.3-1.6 4.3-2-2.2-1.8-4.5-2-6.8-.4 1.5-.2 2.3.6 2.5 2.4zm5.2-6.6c-3.7-5.3-6.3-8.2-8-9l-3.6.5.4 3.3c-.2 2.6 3.5 4.4 11 5.2zM890.4 822c-3 1.5-3.5 6.5-1.2 14.8 2.3 8.4 5 11.8 8.2 10.4 3.4-1.7 4-6.7 1.7-15-2.4-8.4-5.2-11.8-8.7-10.2zm35-12l-6 .8c1.6 1.4 3 4.6 4.5 9.5 2.3 8.3 1.7 13.3-1.7 15-3 1.5-5.8-2-8-10.3-2-7-2-11.4-.4-13.6-21 2.2-42 3.2-63.4 3-25.2 0-50.5-1-76-2.2-25.3-1.3-50.7-.6-76 2 0 0-34.8 2.6-35 2.4L604 827l-17 2c-11 1-17 1.5-18 1.7-10.3 1.2-22 3.5-35 7-.6 0-1.7.8-3.5 2.3-2 1.5-3.3 2.4-4.2 2.5-1 0-2.3-.2-4-.8-2-.2-3.2 0-3.6.4-2-.5-5.2.3-9.5 2.6l-3.3-3-4.6.7c-1.7 2-1 2.7 1.8 2.4-1.4.6-3.5 2-6.2 4 4.3 3 8.8 4.2 13.2 3.7l3-.4c1-.5 1.8-1 2.8-1 1 0 1.7.3 2 1.4.5 1 1 1.5 2 1.4 2-.2 3-1.5 2.7-3.6 2 1 3.3 1.8 3.6 2.2.3.4 1.6 1.8 4 4-2 .4-3.8.3-5.3 0l-3.7.6c2.4-.3-1 1.4-10 5 .2 1 2 1.2 5.4.8-1.4.6-3.7 2-7 4-3.2 2.3-5.3 3.4-6.3 3.6-1.5 0-5.4-2.5-12-7.8-6.3-5.4-9.6-8.7-9.7-10-.4-3.5.7-6.7 3.3-9.6-8 1-12.5 1-13.8.3-1.4-.7-3-2-4.7-4.3-1.8-2.2-5-5-9.3-8.4-6.5.3-14-1.2-23-4.5-1.6-.6-2.5-1.5-2.7-2.8 0-1.3 1.3-5.7 4.4-13-3.4-2.8-6-4.4-8.2-5-1 1-2 3-3.4 6s-2.5 4.6-3.5 4.7c-6 .6-10 1.3-12 2 .5-1-.2-2.4-2-4.4-1.7-2-2.6-3.4-2.7-4.2-.2-1.3 0-2.4.3-3.4.4-1 .6-1.6.5-2 3.5-1.3 8.7-1.7 15.8-1.3 0-2.6.7-6.4 1.6-11.4 1-3.2 3.4-6.7 7-10.7l-1-6.5c-5.2-2.3-9-3.4-11.5-3 1.2-1 2.6-4 4-8.5 1.8-10.7 4.3-16.3 7.8-16.8 2-.2 5 1.2 9.5 4l6.2-4c-.2-1.6-1-3.4-2-5.3-1.3-1.8-2-3-2-3.3-.3-2 2.4-6.4 8.2-12.8l8.4-4.3c1.2.6 2.8 1 4.7.6-.2 2.2.3 4.6 1.6 7-1.2 2.4-1.7 4-1.6 5 1.2 2 6 2.4 14.4 1.4 1.6-.2 4.7-1.2 9.5-3l138-21c.8 0 4-.7 9.4-1.8 5.3-1 8.4-1.7 9.4-2 8-.8 16.8-.6 26.4 1l-11.3-.7-2 2.2 2 1c4-1 8-1.6 12-2.4l6-1c0-.3-.4-.4-.7-.6l1.6.3 19-3.5h-.2.6l4.3-1 26-5c7.4-1.8 13-2.6 16.4-2.7.7-.4 2.6-1 5.6-2 3-1.2 5.4-2 7-3 1.2-.4 3.3-1.6 6.5-3.5 3.2-2 5-3 5.8-3.4-7-9.4-17.7-20-32.4-31.4-14.8-11.5-31.3-23.8-49.6-36.8-18.2-13-37.2-26.4-57-40.3-19-14.4-35-29-48.4-42.6-12.8-13-23.4-25.6-32-37.6-8.8-12-13.7-23.3-14.3-33.7 0-.7 0-1.8.4-3.4.5-1.6.6-2.7.5-3.4-6.4-15.4-9.2-31-8.2-45.7-5.2-8.5-9.5-15.6-11.2-17 18 8.3-5-23.7 8-32 13.5 25.6 130.7-71.5 147.4-75.2-14 8.5-12.8 8.3 4-.3 4.7-7 64-43 76.2-50.4 24.3-14.6 182-119.3 191.6-103.8-21 12.2-41 25.3-60.7 39.4 9-1 34.4 4.3 17.5 26.4 11.5-5.6 19.7-14.4 24.6-26.3-3.6 9.3-7.8 18-12.8 26.5 3.3-1.8 8.2-2.4 8.3-2.5-4.4 2-6 5.4-9.3 4.2-5.5 9-12 17.5-19 25.5 8.5-1.4 17-5 25-10-5 3.5-9.3 7.5-12 12.8 29.7-9.8 52.4-33.7 78.5-50-21.6 13.5-126 114.5-201.8 173.7-35.3 30-70.7 58.2-108 84.6v.4c0 1.6.2 2.7.3 3.5 2.2 9.5 10.4 21.6 25.3 35.4 15 13.5 33.4 28.4 55.2 45 21.7 16.3 45.2 34.5 70.5 54.4 25.2 20 49.6 41.3 73 64 23.6 22.7 44.5 47 63 72.4C978 733.4 991 760 998.8 788c-24.3 11.6-48.7 19-73.4 22zM896 215c-8 2.4-3.2 0-12 5.7 4-2 8-4 12-5.8zm9.2-20.3zm-16 15.2c6.2 8.5 13.3-9.8 15.4-14.7-2.6 2.5-12 11.7-15.4 14.6zm-.5 2.7c-7-3-16.3 10.2 0 0zm-59.5-4.3c20 1.8 4.8-1.2 12-5.8-4.4 0-8.6 2-12 5.8zm-28.3 17c10.7-6.7 19.5-11.2 24-14 1-.2 2.3-1 3.2-2.3-8.6 3-27.5 9.6-27.3 16.3zM490.5 845.5l-2-3-1.3.7 1.8 2.4h1.6zm281.7-152c2.3 8.5 5 12 8 10.4 3.6-1.6 4.2-6.6 1.8-15-2.2-8.4-5-11.7-8.5-10-3 1.4-3.5 6.3-1.2 14.7z"/>
</svg>
